<?xml version="1.0" encoding="UTF-8" ?>
<!DOCTYPE svg PUBLIC "-//W3C//DTD SVG 1.1//EN" "http://www.w3.org/Graphics/SVG/1.1/DTD/svg11.dtd">
<svg width="1000pt" height="1000pt" viewBox="0 0 1000 1000" version="1.1" xmlns="http://www.w3.org/2000/svg">
<g id="#85e92eff">
<path fill="#85e92e" opacity="1.00" d=" M 0.00 0.00 L 1000.00 0.00 L 1000.00 1000.00 L 0.00 1000.00 L 0.00 0.00 M 115.98 374.18 C 107.81 376.45 99.62 380.61 94.87 387.91 C 89.64 395.82 88.96 405.75 89.58 414.95 C 90.88 428.67 92.50 442.36 93.83 456.07 C 94.52 462.41 92.47 469.31 87.16 473.19 C 79.01 479.27 68.26 479.67 58.49 480.06 C 58.51 491.02 58.51 501.98 58.49 512.94 C 68.05 513.28 78.45 513.67 86.60 519.29 C 92.24 523.09 94.56 530.20 93.84 536.76 C 92.58 549.86 91.08 562.94 89.79 576.03 C 89.02 585.14 89.36 594.85 93.83 603.05 C 97.96 610.69 105.81 615.48 113.89 618.04 C 125.97 621.86 138.76 622.40 151.33 622.58 C 151.34 613.14 151.33 603.69 151.34 594.24 C 144.96 593.91 138.08 593.98 132.44 590.55 C 128.49 588.20 126.90 583.35 127.37 578.96 C 128.65 564.97 130.38 551.03 131.65 537.05 C 132.47 527.31 130.81 516.54 123.56 509.41 C 115.16 501.14 103.08 498.46 91.86 496.51 C 103.89 494.36 117.10 491.08 125.14 481.13 C 131.20 473.89 132.37 463.98 131.57 454.88 C 130.27 441.26 128.63 427.66 127.37 414.04 C 126.87 409.64 128.44 404.79 132.40 402.44 C 138.04 399.00 144.94 399.04 151.34 398.77 C 151.33 389.31 151.35 379.85 151.33 370.39 C 139.48 370.56 127.48 371.08 115.98 374.18 M 848.80 370.39 C 848.78 379.85 848.79 389.31 848.79 398.77 C 855.76 399.13 863.70 398.92 869.31 403.74 C 873.48 407.47 872.93 413.55 872.26 418.57 C 870.98 430.69 869.66 442.80 868.46 454.93 C 867.58 464.72 868.85 475.62 875.98 483.00 C 884.33 491.75 896.83 494.41 908.27 496.50 C 896.62 498.57 884.00 501.66 875.77 510.79 C 869.29 517.80 867.65 527.81 868.40 537.02 C 869.66 551.06 871.39 565.07 872.70 579.11 C 873.14 583.46 871.46 588.18 867.62 590.54 C 862.02 594.00 855.14 593.90 848.79 594.23 C 848.79 603.68 848.79 613.13 848.79 622.58 C 857.84 622.48 866.91 622.11 875.85 620.60 C 885.93 618.89 896.58 615.55 903.40 607.46 C 910.19 599.37 911.15 588.18 910.46 578.05 C 909.18 564.03 907.42 550.07 906.15 536.06 C 905.59 529.74 908.04 523.05 913.39 519.40 C 921.52 513.71 931.93 513.28 941.51 512.94 C 941.49 501.98 941.49 491.02 941.51 480.06 C 931.53 479.65 920.43 479.30 912.31 472.72 C 907.00 468.55 905.43 461.33 906.30 454.92 C 907.63 442.11 909.00 429.30 910.32 416.49 C 911.12 407.25 910.68 397.34 905.80 389.18 C 901.55 381.94 893.93 377.41 886.11 374.93 C 874.07 371.12 861.32 370.60 848.80 370.39 M 609.02 442.11 C 598.63 445.00 587.79 445.83 577.04 445.67 C 564.08 445.56 550.84 448.00 539.46 454.43 C 528.40 460.55 519.48 471.09 516.75 483.60 C 514.48 494.12 514.95 505.56 519.60 515.40 C 523.65 524.02 531.48 530.12 539.70 534.54 C 531.90 539.56 525.72 547.66 524.63 557.05 C 523.52 564.22 526.25 571.63 531.34 576.71 C 537.41 583.28 546.40 586.03 555.05 587.04 C 567.28 588.39 579.62 587.29 591.89 587.83 C 596.59 588.17 601.67 589.34 604.96 592.99 C 609.86 598.25 608.68 607.72 602.71 611.69 C 598.36 614.55 593.11 615.60 588.01 616.15 C 580.27 616.89 572.45 616.85 564.71 616.19 C 559.48 615.60 553.85 614.82 549.65 611.38 C 546.22 608.47 545.61 603.71 545.34 599.50 C 533.34 599.51 521.33 599.49 509.33 599.51 C 509.51 610.33 512.12 622.08 520.36 629.70 C 529.61 637.98 542.19 641.03 554.22 642.42 C 569.39 643.97 584.78 644.00 599.89 641.83 C 613.72 639.76 627.95 635.18 637.96 624.95 C 650.71 612.23 652.20 589.53 640.27 575.79 C 630.87 564.75 616.17 559.74 602.04 558.99 C 591.42 558.50 580.78 559.02 570.16 558.71 C 566.39 558.44 561.77 557.85 559.95 554.01 C 557.75 550.07 559.81 545.28 563.10 542.66 C 574.98 544.95 587.38 544.79 599.16 542.03 C 611.97 538.95 624.33 531.69 631.23 520.20 C 637.53 509.80 638.82 496.54 634.96 485.05 C 631.09 474.38 620.93 467.78 611.02 463.35 C 624.17 463.24 637.64 462.64 650.09 457.99 C 646.92 448.00 643.72 438.02 640.56 428.03 C 630.50 433.63 620.25 439.22 609.02 442.11 M 219.28 461.29 C 204.59 475.58 204.77 502.88 221.10 515.87 C 234.09 526.52 251.17 529.10 266.65 534.29 C 271.35 535.98 276.36 537.51 280.11 540.97 C 284.70 545.44 284.23 554.19 278.58 557.61 C 272.17 561.64 264.23 562.02 256.87 561.68 C 243.59 561.08 231.08 555.24 220.57 547.37 C 213.74 555.02 206.90 562.67 200.10 570.34 C 212.01 580.42 226.79 587.00 242.18 589.48 C 259.12 591.98 276.82 591.43 293.13 585.86 C 303.59 582.31 313.49 576.00 319.66 566.66 C 325.89 557.11 326.47 544.93 324.14 534.05 C 322.20 524.80 315.53 517.14 307.44 512.54 C 292.56 504.11 275.37 501.62 259.65 495.29 C 256.75 494.04 253.73 492.71 251.55 490.35 C 248.53 487.01 248.93 481.26 252.40 478.38 C 255.92 475.48 260.66 474.84 265.05 474.55 C 279.83 473.49 294.40 478.41 306.91 485.99 C 312.32 477.99 317.73 469.99 323.13 461.99 C 317.49 457.98 311.37 454.65 304.94 452.08 C 289.89 445.76 273.18 444.54 257.06 445.89 C 243.38 447.09 229.25 451.43 219.28 461.29 M 759.24 450.16 C 746.77 456.00 738.84 468.14 733.59 480.41 C 731.13 470.24 728.67 460.07 726.19 449.91 C 709.89 449.90 693.60 449.90 677.30 449.91 C 677.28 458.94 677.30 467.96 677.29 476.99 C 683.25 477.01 689.21 476.99 695.17 477.01 C 695.17 504.39 695.18 531.77 695.16 559.16 C 689.20 559.18 683.25 559.16 677.29 559.17 C 677.30 568.28 677.27 577.40 677.31 586.51 C 705.78 586.48 734.24 586.51 762.70 586.50 C 762.71 577.39 762.70 568.28 762.71 559.17 C 753.75 559.16 744.80 559.18 735.84 559.16 C 735.86 546.44 735.75 533.72 735.88 521.00 C 736.94 515.14 739.76 509.72 742.50 504.47 C 748.31 494.06 757.16 483.99 769.48 481.82 C 769.53 490.24 769.48 498.66 769.51 507.09 C 778.00 507.10 786.49 507.09 794.99 507.10 C 797.56 488.02 800.03 468.94 802.61 449.87 C 788.86 444.64 772.78 443.94 759.24 450.16 M 345.35 449.91 C 352.08 495.44 358.78 540.97 365.52 586.50 C 380.21 586.50 394.91 586.50 409.60 586.50 C 413.71 556.07 417.66 525.62 421.78 495.18 C 425.73 525.61 429.49 556.07 433.45 586.50 C 448.40 586.49 463.35 586.51 478.30 586.49 C 484.76 540.96 491.23 495.44 497.69 449.91 C 485.73 449.90 473.78 449.90 461.82 449.91 C 458.69 486.81 455.84 523.74 452.66 560.64 C 448.46 529.48 444.15 498.32 439.92 467.16 C 428.50 467.19 417.09 467.15 405.67 467.18 C 400.96 498.33 396.12 529.46 391.43 560.61 C 388.30 523.73 385.52 486.81 382.53 449.91 C 370.14 449.90 357.74 449.90 345.35 449.91 Z" />
<path fill="#85e92e" opacity="1.00" d=" M 572.37 472.58 C 579.31 471.36 587.40 472.18 592.71 477.28 C 597.75 482.39 598.52 490.11 598.21 496.95 C 597.91 504.09 595.37 512.04 588.73 515.69 C 579.73 520.47 566.79 518.99 560.71 510.24 C 556.13 503.45 555.76 494.53 557.62 486.77 C 559.36 479.75 565.18 473.88 572.37 472.58 Z" />
</g>
<g id="#1a354aff">
<path fill="#1a354a" opacity="1.00" d=" M 115.98 374.18 C 127.48 371.08 139.48 370.56 151.33 370.39 C 151.35 379.85 151.33 389.31 151.34 398.77 C 144.94 399.04 138.04 399.00 132.40 402.44 C 128.44 404.79 126.87 409.64 127.37 414.04 C 128.63 427.66 130.27 441.26 131.57 454.88 C 132.37 463.98 131.20 473.89 125.14 481.13 C 117.10 491.08 103.89 494.36 91.86 496.51 C 103.08 498.46 115.16 501.14 123.56 509.41 C 130.81 516.54 132.47 527.31 131.65 537.05 C 130.38 551.03 128.65 564.97 127.37 578.96 C 126.90 583.35 128.49 588.20 132.44 590.55 C 138.08 593.98 144.96 593.91 151.34 594.24 C 151.33 603.69 151.34 613.14 151.33 622.58 C 138.76 622.40 125.97 621.86 113.89 618.04 C 105.81 615.48 97.96 610.69 93.83 603.05 C 89.36 594.85 89.02 585.14 89.79 576.03 C 91.08 562.94 92.58 549.86 93.84 536.76 C 94.56 530.20 92.24 523.09 86.60 519.29 C 78.45 513.67 68.05 513.28 58.49 512.94 C 58.51 501.98 58.51 491.02 58.49 480.06 C 68.26 479.67 79.01 479.27 87.16 473.19 C 92.47 469.31 94.52 462.41 93.83 456.07 C 92.50 442.36 90.88 428.67 89.58 414.95 C 88.96 405.75 89.64 395.82 94.87 387.91 C 99.62 380.61 107.81 376.45 115.98 374.18 Z" />
<path fill="#1a354a" opacity="1.00" d=" M 848.80 370.39 C 861.32 370.60 874.07 371.12 886.11 374.93 C 893.93 377.41 901.55 381.94 905.80 389.18 C 910.68 397.34 911.12 407.25 910.32 416.49 C 909.00 429.30 907.63 442.11 906.30 454.92 C 905.43 461.33 907.00 468.55 912.31 472.72 C 920.43 479.30 931.53 479.65 941.51 480.06 C 941.49 491.02 941.49 501.98 941.51 512.94 C 931.93 513.28 921.52 513.71 913.39 519.40 C 908.04 523.05 905.59 529.74 906.15 536.06 C 907.42 550.07 909.18 564.03 910.46 578.05 C 911.15 588.18 910.19 599.37 903.40 607.46 C 896.58 615.55 885.93 618.89 875.85 620.60 C 866.91 622.11 857.84 622.48 848.79 622.58 C 848.79 613.13 848.79 603.68 848.79 594.23 C 855.14 593.90 862.02 594.00 867.62 590.54 C 871.46 588.18 873.14 583.46 872.70 579.11 C 871.39 565.07 869.66 551.06 868.40 537.02 C 867.65 527.81 869.29 517.80 875.77 510.79 C 884.00 501.66 896.62 498.57 908.27 496.50 C 896.83 494.41 884.33 491.75 875.98 483.00 C 868.85 475.62 867.58 464.72 868.46 454.93 C 869.66 442.80 870.98 430.69 872.26 418.57 C 872.93 413.55 873.48 407.47 869.31 403.74 C 863.70 398.92 855.76 399.13 848.79 398.77 C 848.79 389.31 848.78 379.85 848.80 370.39 Z" />
<path fill="#1a354a" opacity="1.00" d=" M 609.02 442.11 C 620.25 439.22 630.50 433.63 640.56 428.03 C 643.72 438.02 646.92 448.00 650.09 457.99 C 637.64 462.64 624.17 463.24 611.02 463.35 C 620.93 467.78 631.09 474.38 634.96 485.05 C 638.82 496.54 637.53 509.80 631.23 520.20 C 624.33 531.69 611.97 538.95 599.16 542.03 C 587.38 544.79 574.98 544.95 563.10 542.66 C 559.81 545.28 557.75 550.07 559.95 554.01 C 561.77 557.85 566.39 558.44 570.16 558.71 C 580.78 559.02 591.42 558.50 602.04 558.99 C 616.17 559.74 630.87 564.75 640.27 575.79 C 652.20 589.53 650.71 612.23 637.96 624.95 C 627.95 635.18 613.72 639.76 599.89 641.83 C 584.78 644.00 569.39 643.97 554.22 642.42 C 542.19 641.03 529.61 637.98 520.36 629.70 C 512.12 622.08 509.51 610.33 509.33 599.51 C 521.33 599.49 533.34 599.51 545.34 599.50 C 545.61 603.71 546.22 608.47 549.65 611.38 C 553.85 614.82 559.48 615.60 564.71 616.19 C 572.45 616.85 580.27 616.89 588.01 616.15 C 593.11 615.60 598.36 614.55 602.71 611.69 C 608.68 607.72 609.86 598.25 604.96 592.99 C 601.67 589.34 596.59 588.17 591.89 587.83 C 579.62 587.29 567.28 588.39 555.05 587.04 C 546.40 586.03 537.41 583.28 531.34 576.71 C 526.25 571.63 523.52 564.22 524.63 557.05 C 525.72 547.66 531.90 539.56 539.70 534.54 C 531.48 530.12 523.65 524.02 519.60 515.40 C 514.95 505.56 514.48 494.12 516.75 483.60 C 519.48 471.09 528.40 460.55 539.46 454.43 C 550.84 448.00 564.08 445.56 577.04 445.67 C 587.79 445.83 598.63 445.00 609.02 442.11 M 572.37 472.58 C 565.18 473.88 559.36 479.75 557.62 486.77 C 555.76 494.53 556.13 503.45 560.71 510.24 C 566.79 518.99 579.73 520.47 588.73 515.69 C 595.37 512.04 597.91 504.09 598.21 496.95 C 598.52 490.11 597.75 482.39 592.71 477.28 C 587.40 472.18 579.31 471.36 572.37 472.58 Z" />
<path fill="#1a354a" opacity="1.00" d=" M 219.28 461.29 C 229.25 451.43 243.38 447.09 257.06 445.89 C 273.18 444.54 289.89 445.76 304.94 452.08 C 311.37 454.65 317.49 457.98 323.13 461.99 C 317.73 469.99 312.32 477.99 306.91 485.99 C 294.40 478.41 279.83 473.49 265.05 474.55 C 260.66 474.84 255.92 475.48 252.40 478.38 C 248.93 481.26 248.53 487.01 251.55 490.35 C 253.73 492.71 256.75 494.04 259.65 495.29 C 275.37 501.62 292.56 504.11 307.44 512.54 C 315.53 517.14 322.20 524.80 324.14 534.05 C 326.47 544.93 325.89 557.11 319.66 566.66 C 313.49 576.00 303.59 582.31 293.13 585.86 C 276.82 591.43 259.12 591.98 242.18 589.48 C 226.79 587.00 212.01 580.42 200.10 570.34 C 206.90 562.67 213.74 555.02 220.57 547.37 C 231.08 555.24 243.59 561.08 256.87 561.68 C 264.23 562.02 272.17 561.64 278.58 557.61 C 284.23 554.19 284.70 545.44 280.11 540.97 C 276.36 537.51 271.35 535.98 266.65 534.29 C 251.17 529.10 234.09 526.52 221.10 515.87 C 204.77 502.88 204.59 475.58 219.28 461.29 Z" />
<path fill="#1a354a" opacity="1.00" d=" M 759.24 450.16 C 772.78 443.94 788.86 444.64 802.61 449.87 C 800.03 468.94 797.56 488.02 794.99 507.10 C 786.49 507.09 778.00 507.10 769.51 507.09 C 769.48 498.66 769.53 490.24 769.48 481.82 C 757.16 483.99 748.31 494.06 742.50 504.47 C 739.76 509.72 736.94 515.14 735.88 521.00 C 735.75 533.72 735.86 546.44 735.84 559.16 C 744.80 559.18 753.75 559.16 762.71 559.17 C 762.70 568.28 762.71 577.39 762.70 586.50 C 734.24 586.51 705.78 586.48 677.31 586.51 C 677.27 577.40 677.30 568.28 677.29 559.17 C 683.25 559.16 689.20 559.18 695.16 559.16 C 695.18 531.77 695.17 504.39 695.17 477.01 C 689.21 476.99 683.25 477.01 677.29 476.99 C 677.30 467.96 677.28 458.94 677.30 449.91 C 693.60 449.90 709.89 449.90 726.19 449.91 C 728.67 460.07 731.13 470.24 733.59 480.41 C 738.84 468.14 746.77 456.00 759.24 450.16 Z" />
<path fill="#1a354a" opacity="1.00" d=" M 345.35 449.91 C 357.74 449.90 370.14 449.90 382.53 449.91 C 385.52 486.81 388.30 523.73 391.43 560.61 C 396.12 529.46 400.96 498.33 405.67 467.18 C 417.09 467.15 428.50 467.19 439.92 467.16 C 444.15 498.32 448.46 529.48 452.66 560.64 C 455.84 523.74 458.69 486.81 461.82 449.91 C 473.78 449.90 485.73 449.90 497.69 449.91 C 491.23 495.44 484.76 540.96 478.30 586.49 C 463.35 586.51 448.40 586.49 433.45 586.50 C 429.49 556.07 425.73 525.61 421.78 495.18 C 417.66 525.62 413.71 556.07 409.60 586.50 C 394.91 586.50 380.21 586.50 365.52 586.50 C 358.78 540.97 352.08 495.44 345.35 449.91 Z" />
</g>
</svg>
