<?xml version="1.0" encoding="UTF-8" ?>
<!DOCTYPE svg PUBLIC "-//W3C//DTD SVG 1.1//EN" "http://www.w3.org/Graphics/SVG/1.1/DTD/svg11.dtd">
<svg width="1000pt" height="1000pt" viewBox="0 0 1000 1000" version="1.1" xmlns="http://www.w3.org/2000/svg">
<g id="#85e92eff">
<path fill="#85e92e" opacity="1.00" d=" M 0.00 0.00 L 1000.00 0.00 L 1000.00 1000.00 L 0.00 1000.00 L 0.00 0.00 M 322.69 410.72 C 315.69 414.83 312.32 423.08 312.30 430.94 C 312.19 440.64 313.95 450.25 314.76 459.90 C 315.35 465.99 317.00 473.33 312.29 478.27 C 306.43 484.35 297.28 484.55 289.41 484.98 C 289.40 493.03 289.40 501.09 289.41 509.14 C 296.45 509.53 304.10 509.72 310.12 513.88 C 314.07 516.51 315.92 521.37 315.51 526.00 C 314.73 537.37 312.89 548.64 312.29 560.02 C 311.91 568.56 314.54 578.07 322.14 582.89 C 332.72 589.63 345.85 589.85 357.99 590.12 C 358.01 583.16 358.00 576.20 358.00 569.24 C 353.19 568.91 347.94 569.04 343.75 566.29 C 340.75 564.33 339.87 560.46 340.33 557.10 C 341.35 547.06 342.52 537.03 343.46 526.99 C 344.04 520.02 342.92 512.34 337.94 507.08 C 331.82 500.59 322.60 498.60 314.17 497.07 C 322.60 495.54 331.72 493.33 337.76 486.79 C 342.68 481.55 344.06 474.01 343.45 467.06 C 342.50 457.04 341.35 447.05 340.34 437.05 C 339.84 433.65 340.73 429.71 343.82 427.77 C 348.01 425.10 353.21 425.18 358.00 424.94 C 358.00 417.94 358.01 410.96 358.00 403.97 C 346.06 404.35 333.26 404.43 322.69 410.72 M 873.30 403.97 C 873.28 410.95 873.31 417.93 873.28 424.92 C 878.00 425.20 883.12 425.11 887.30 427.69 C 890.07 429.42 891.29 432.85 890.93 436.02 C 890.04 446.71 888.57 457.36 887.73 468.07 C 887.26 474.90 888.63 482.33 893.60 487.38 C 899.80 493.62 908.84 495.56 917.18 497.08 C 907.20 498.77 895.73 501.91 890.50 511.47 C 885.39 520.97 888.65 532.01 889.32 542.13 C 889.66 548.71 891.51 555.32 890.61 561.90 C 888.33 569.05 879.40 568.86 873.27 569.25 C 873.32 576.20 873.27 583.16 873.30 590.11 C 882.86 590.04 892.61 589.58 901.77 586.60 C 908.74 584.39 915.19 579.38 917.40 572.18 C 920.86 561.36 917.70 550.00 916.97 539.01 C 916.71 531.75 913.57 523.59 917.99 517.02 C 923.50 509.85 933.46 509.64 941.70 509.15 C 941.70 501.09 941.71 493.03 941.70 484.97 C 934.62 484.61 926.90 484.37 920.93 480.08 C 917.10 477.41 915.28 472.61 915.68 468.05 C 916.59 457.02 918.11 446.05 918.96 435.02 C 919.52 426.35 917.07 416.58 909.46 411.50 C 898.87 404.46 885.55 404.38 873.30 403.97 M 458.54 458.34 C 448.86 460.34 438.90 458.68 429.21 460.52 C 419.21 462.28 409.30 466.87 402.87 474.94 C 395.53 483.91 394.15 496.71 397.45 507.59 C 399.85 515.56 406.46 521.34 413.59 525.14 C 407.58 529.17 402.79 535.60 402.44 543.03 C 401.75 551.05 407.59 558.26 414.69 561.28 C 424.26 565.37 434.89 564.14 445.01 564.32 C 450.49 564.43 456.82 563.84 461.28 567.69 C 465.78 571.59 464.76 579.74 459.52 582.52 C 453.60 585.76 446.60 585.66 440.04 585.80 C 434.06 585.54 427.64 585.72 422.25 582.74 C 418.80 580.86 418.14 576.66 417.80 573.13 C 408.97 573.21 400.15 573.14 391.33 573.18 C 391.34 581.62 393.68 590.91 400.57 596.39 C 408.61 602.74 419.13 604.45 429.07 605.21 C 441.01 605.99 453.17 605.76 464.87 603.04 C 472.91 601.14 480.84 597.63 486.59 591.54 C 493.97 583.90 495.98 571.75 491.96 562.00 C 488.37 553.62 480.33 547.95 471.82 545.32 C 459.84 541.56 447.15 543.63 434.85 542.84 C 432.15 542.70 429.17 541.51 428.29 538.73 C 427.24 535.87 428.88 533.03 430.96 531.15 C 446.80 534.06 465.26 531.99 477.08 520.04 C 485.19 511.88 487.77 498.94 483.87 488.19 C 480.93 480.56 473.58 475.89 466.47 472.60 C 476.16 472.60 486.04 472.01 495.23 468.69 C 492.88 461.31 490.53 453.92 488.18 446.54 C 478.89 451.78 469.17 456.66 458.54 458.34 M 532.37 466.37 C 519.76 474.27 512.36 488.51 510.39 502.98 C 508.52 517.07 510.15 532.15 517.51 544.55 C 523.98 555.54 535.51 563.11 547.98 565.44 C 566.75 569.14 587.47 565.48 602.32 552.93 C 598.30 547.45 594.26 541.99 590.23 536.53 C 579.48 543.25 565.66 547.82 553.33 542.70 C 545.05 539.29 541.18 530.23 540.22 521.85 C 561.99 521.79 583.76 521.85 605.52 521.83 C 606.78 508.75 606.14 494.91 600.09 482.99 C 594.35 471.24 582.87 462.66 570.01 460.39 C 557.34 458.14 543.40 459.26 532.37 466.37 M 631.22 466.85 C 633.53 473.52 635.84 480.19 638.18 486.86 C 647.16 483.94 656.50 481.74 665.98 481.56 C 671.89 481.57 678.64 482.56 682.67 487.36 C 685.83 491.07 685.72 496.20 685.70 500.79 C 675.43 500.95 665.06 500.16 654.92 502.20 C 644.10 504.18 632.85 509.20 627.07 519.04 C 620.26 531.38 622.02 548.68 632.77 558.30 C 639.46 564.61 648.96 567.01 657.97 566.73 C 669.86 566.52 682.35 562.53 690.30 553.29 C 695.15 562.16 705.48 565.60 714.98 566.43 C 717.04 559.87 719.11 553.32 721.12 546.75 C 719.36 545.62 717.32 544.70 716.20 542.85 C 714.57 540.20 714.62 536.96 714.51 533.96 C 714.48 520.61 714.51 507.26 714.50 493.91 C 714.46 485.60 712.03 476.97 706.22 470.82 C 700.50 464.62 692.18 461.62 684.03 460.34 C 666.25 457.69 647.99 460.74 631.22 466.85 M 69.37 465.35 C 62.28 469.04 56.48 475.53 54.57 483.39 C 52.54 492.30 53.99 502.65 60.70 509.31 C 68.32 516.98 79.15 519.91 89.26 522.73 C 94.69 524.42 100.38 525.75 105.23 528.85 C 109.61 531.55 110.14 538.78 105.84 541.81 C 101.61 544.85 96.14 545.28 91.09 545.27 C 80.65 545.19 70.79 540.73 62.50 534.63 C 57.48 540.30 52.39 545.91 47.41 551.61 C 63.78 565.61 86.82 569.22 107.53 565.35 C 117.51 563.40 127.59 559.17 134.12 551.07 C 140.24 543.63 141.10 533.11 138.83 524.03 C 137.20 517.36 132.21 511.95 126.31 508.68 C 115.94 502.95 104.12 500.97 93.12 496.84 C 90.61 495.86 88.01 494.86 85.95 493.06 C 83.10 490.64 83.33 485.59 86.39 483.44 C 89.45 481.20 93.41 480.96 97.07 480.79 C 107.43 480.46 117.51 484.06 126.31 489.31 C 130.26 483.35 134.44 477.54 138.24 471.48 C 128.41 464.75 116.86 460.42 104.94 459.64 C 92.91 458.85 80.19 459.51 69.37 465.35 M 806.73 462.85 C 797.54 467.16 791.69 476.10 787.82 485.15 C 785.97 477.66 784.19 470.16 782.36 462.67 C 770.29 462.66 758.23 462.66 746.17 462.67 C 746.16 469.35 746.17 476.03 746.17 482.71 C 750.58 482.70 754.98 482.70 759.40 482.71 C 759.41 502.94 759.42 523.17 759.39 543.39 C 754.98 543.41 750.58 543.41 746.18 543.40 C 746.16 550.10 746.17 556.80 746.17 563.50 C 767.22 563.50 788.27 563.51 809.33 563.49 C 809.34 556.80 809.33 550.11 809.33 543.42 C 802.72 543.39 796.11 543.42 789.51 543.40 C 789.48 534.59 789.51 525.78 789.48 516.97 C 789.42 512.52 791.69 508.52 793.52 504.61 C 797.81 496.25 804.59 488.10 814.27 486.20 C 814.32 492.41 814.28 498.62 814.29 504.83 C 820.58 504.83 826.87 504.84 833.16 504.82 C 835.04 490.75 836.90 476.68 838.76 462.61 C 828.58 458.84 816.75 458.27 806.73 462.85 M 154.63 462.68 C 159.57 496.29 164.53 529.90 169.52 563.50 C 180.37 563.49 191.22 563.51 202.07 563.49 C 205.12 541.05 208.01 518.59 211.06 496.15 C 213.93 518.60 216.78 541.04 219.64 563.49 C 230.69 563.50 241.75 563.50 252.81 563.49 C 257.56 529.88 262.34 496.28 267.11 462.67 C 258.26 462.65 249.42 462.67 240.57 462.67 C 238.35 489.81 236.20 516.96 233.86 544.09 C 230.68 521.21 227.60 498.30 224.45 475.41 C 216.02 475.40 207.59 475.40 199.17 475.41 C 195.61 498.37 192.23 521.35 188.56 544.29 C 186.44 517.08 184.26 489.88 182.07 462.67 C 172.92 462.66 163.78 462.65 154.63 462.68 Z" />
<path fill="#85e92e" opacity="1.00" d=" M 436.51 479.76 C 441.63 478.45 447.62 478.82 451.95 482.12 C 456.34 485.66 457.12 491.79 456.90 497.07 C 456.78 502.62 454.72 508.87 449.41 511.48 C 443.12 514.51 434.52 513.66 429.89 508.08 C 426.09 503.40 425.64 496.87 426.64 491.14 C 427.56 485.93 431.32 481.20 436.51 479.76 Z" />
<path fill="#85e92e" opacity="1.00" d=" M 545.66 485.59 C 551.25 478.41 562.91 477.54 569.90 483.10 C 575.48 488.35 576.52 496.49 576.88 503.77 C 564.55 503.82 552.22 503.78 539.89 503.79 C 540.51 497.45 541.60 490.73 545.66 485.59 Z" />
<path fill="#85e92e" opacity="1.00" d=" M 659.82 521.82 C 667.52 517.11 677.01 517.98 685.66 517.84 C 685.57 523.24 685.88 528.66 685.54 534.06 C 681.34 542.94 669.43 547.81 660.33 543.81 C 651.90 539.89 652.12 526.42 659.82 521.82 Z" />
</g>
<g id="#1a354aff">
<path fill="#1a354a" opacity="1.00" d=" M 322.69 410.72 C 333.26 404.43 346.06 404.35 358.00 403.97 C 358.01 410.96 358.00 417.94 358.00 424.94 C 353.21 425.18 348.01 425.10 343.82 427.77 C 340.73 429.71 339.84 433.65 340.34 437.05 C 341.35 447.05 342.50 457.04 343.45 467.06 C 344.06 474.01 342.68 481.55 337.76 486.79 C 331.72 493.33 322.60 495.54 314.17 497.07 C 322.60 498.60 331.82 500.59 337.94 507.08 C 342.92 512.34 344.04 520.02 343.46 526.99 C 342.52 537.03 341.35 547.06 340.33 557.10 C 339.87 560.46 340.75 564.33 343.75 566.29 C 347.94 569.04 353.19 568.91 358.00 569.24 C 358.00 576.20 358.01 583.16 357.99 590.12 C 345.85 589.85 332.72 589.63 322.14 582.89 C 314.54 578.07 311.91 568.56 312.29 560.02 C 312.89 548.64 314.73 537.37 315.51 526.00 C 315.92 521.37 314.07 516.51 310.12 513.88 C 304.10 509.72 296.45 509.53 289.41 509.14 C 289.40 501.09 289.40 493.03 289.41 484.98 C 297.28 484.55 306.43 484.35 312.29 478.27 C 317.00 473.33 315.35 465.99 314.76 459.90 C 313.95 450.25 312.19 440.64 312.30 430.94 C 312.32 423.08 315.69 414.83 322.69 410.72 Z" />
<path fill="#1a354a" opacity="1.00" d=" M 873.30 403.97 C 885.55 404.38 898.87 404.46 909.46 411.50 C 917.07 416.58 919.52 426.35 918.96 435.02 C 918.11 446.05 916.59 457.02 915.68 468.05 C 915.28 472.61 917.10 477.41 920.93 480.08 C 926.90 484.37 934.62 484.61 941.70 484.97 C 941.71 493.03 941.70 501.09 941.70 509.15 C 933.46 509.64 923.50 509.85 917.99 517.02 C 913.57 523.59 916.71 531.75 916.97 539.01 C 917.70 550.00 920.86 561.36 917.40 572.18 C 915.19 579.38 908.74 584.39 901.77 586.60 C 892.61 589.58 882.86 590.04 873.30 590.11 C 873.27 583.16 873.32 576.20 873.27 569.25 C 879.40 568.86 888.33 569.05 890.61 561.90 C 891.51 555.32 889.66 548.71 889.32 542.13 C 888.65 532.01 885.39 520.97 890.50 511.47 C 895.73 501.91 907.20 498.77 917.18 497.08 C 908.84 495.56 899.80 493.62 893.60 487.38 C 888.63 482.33 887.26 474.90 887.73 468.07 C 888.57 457.36 890.04 446.71 890.93 436.02 C 891.29 432.85 890.07 429.42 887.30 427.69 C 883.12 425.11 878.00 425.20 873.28 424.92 C 873.31 417.93 873.28 410.95 873.30 403.97 Z" />
<path fill="#1a354a" opacity="1.00" d=" M 458.54 458.34 C 469.17 456.66 478.89 451.78 488.18 446.54 C 490.53 453.92 492.88 461.31 495.23 468.69 C 486.04 472.01 476.16 472.60 466.47 472.60 C 473.58 475.89 480.93 480.56 483.87 488.19 C 487.77 498.94 485.19 511.88 477.08 520.04 C 465.26 531.99 446.80 534.06 430.96 531.15 C 428.88 533.03 427.24 535.87 428.29 538.73 C 429.17 541.51 432.15 542.70 434.85 542.84 C 447.15 543.63 459.84 541.56 471.82 545.32 C 480.33 547.95 488.37 553.62 491.96 562.00 C 495.98 571.75 493.97 583.90 486.59 591.54 C 480.84 597.63 472.91 601.14 464.87 603.04 C 453.17 605.76 441.01 605.99 429.07 605.21 C 419.13 604.45 408.61 602.74 400.57 596.39 C 393.68 590.91 391.34 581.62 391.33 573.18 C 400.15 573.14 408.97 573.21 417.80 573.13 C 418.14 576.66 418.80 580.86 422.25 582.74 C 427.64 585.72 434.06 585.54 440.04 585.80 C 446.60 585.66 453.60 585.76 459.52 582.52 C 464.76 579.74 465.78 571.59 461.28 567.69 C 456.82 563.84 450.49 564.43 445.01 564.32 C 434.89 564.14 424.26 565.37 414.69 561.28 C 407.59 558.26 401.75 551.05 402.44 543.03 C 402.79 535.60 407.58 529.17 413.59 525.14 C 406.46 521.34 399.85 515.56 397.45 507.59 C 394.15 496.71 395.53 483.91 402.87 474.94 C 409.30 466.87 419.21 462.28 429.21 460.52 C 438.90 458.68 448.86 460.34 458.54 458.34 M 436.51 479.76 C 431.32 481.20 427.56 485.93 426.64 491.14 C 425.64 496.87 426.09 503.40 429.89 508.08 C 434.52 513.66 443.12 514.51 449.41 511.48 C 454.72 508.87 456.78 502.62 456.90 497.07 C 457.12 491.79 456.34 485.66 451.95 482.12 C 447.62 478.82 441.63 478.45 436.51 479.76 Z" />
<path fill="#1a354a" opacity="1.00" d=" M 532.37 466.37 C 543.40 459.26 557.34 458.14 570.01 460.39 C 582.87 462.66 594.35 471.24 600.09 482.99 C 606.14 494.91 606.78 508.75 605.52 521.83 C 583.76 521.85 561.99 521.79 540.22 521.85 C 541.18 530.23 545.05 539.29 553.33 542.70 C 565.66 547.82 579.48 543.25 590.23 536.53 C 594.26 541.99 598.30 547.45 602.32 552.93 C 587.47 565.48 566.75 569.14 547.98 565.44 C 535.51 563.11 523.98 555.54 517.51 544.55 C 510.15 532.15 508.52 517.07 510.39 502.98 C 512.36 488.51 519.76 474.27 532.37 466.37 M 545.66 485.59 C 541.60 490.73 540.51 497.45 539.89 503.79 C 552.22 503.78 564.55 503.82 576.88 503.77 C 576.52 496.49 575.48 488.35 569.90 483.10 C 562.91 477.54 551.25 478.41 545.66 485.59 Z" />
<path fill="#1a354a" opacity="1.00" d=" M 631.22 466.85 C 647.99 460.74 666.25 457.69 684.03 460.34 C 692.18 461.62 700.50 464.62 706.22 470.82 C 712.03 476.97 714.46 485.60 714.50 493.91 C 714.51 507.26 714.48 520.61 714.51 533.96 C 714.62 536.96 714.57 540.20 716.20 542.85 C 717.32 544.70 719.36 545.62 721.12 546.75 C 719.11 553.32 717.04 559.87 714.98 566.43 C 705.48 565.60 695.15 562.16 690.30 553.29 C 682.35 562.53 669.86 566.52 657.97 566.73 C 648.96 567.01 639.46 564.61 632.77 558.30 C 622.02 548.68 620.26 531.38 627.07 519.04 C 632.85 509.20 644.10 504.18 654.92 502.20 C 665.06 500.16 675.43 500.95 685.70 500.79 C 685.72 496.20 685.83 491.07 682.67 487.36 C 678.64 482.56 671.89 481.57 665.98 481.56 C 656.50 481.74 647.16 483.94 638.18 486.86 C 635.84 480.19 633.53 473.52 631.22 466.85 M 659.82 521.82 C 652.12 526.42 651.90 539.89 660.33 543.81 C 669.43 547.81 681.34 542.94 685.54 534.06 C 685.88 528.66 685.57 523.24 685.66 517.84 C 677.01 517.98 667.52 517.11 659.82 521.82 Z" />
<path fill="#1a354a" opacity="1.00" d=" M 69.37 465.35 C 80.19 459.51 92.91 458.85 104.94 459.64 C 116.86 460.42 128.41 464.75 138.24 471.48 C 134.44 477.54 130.26 483.35 126.31 489.31 C 117.51 484.06 107.43 480.46 97.07 480.79 C 93.41 480.96 89.45 481.20 86.39 483.44 C 83.33 485.59 83.10 490.64 85.95 493.06 C 88.01 494.86 90.61 495.86 93.12 496.84 C 104.12 500.97 115.94 502.95 126.31 508.68 C 132.21 511.95 137.20 517.36 138.83 524.03 C 141.10 533.11 140.24 543.63 134.12 551.07 C 127.59 559.17 117.51 563.40 107.53 565.35 C 86.82 569.22 63.78 565.61 47.41 551.61 C 52.39 545.91 57.48 540.30 62.50 534.63 C 70.79 540.73 80.65 545.19 91.09 545.27 C 96.14 545.28 101.61 544.85 105.84 541.81 C 110.14 538.78 109.61 531.55 105.23 528.85 C 100.38 525.75 94.69 524.42 89.26 522.73 C 79.15 519.91 68.32 516.98 60.70 509.31 C 53.99 502.65 52.54 492.30 54.57 483.39 C 56.48 475.53 62.28 469.04 69.37 465.35 Z" />
<path fill="#1a354a" opacity="1.00" d=" M 806.73 462.85 C 816.75 458.27 828.58 458.84 838.76 462.61 C 836.90 476.68 835.04 490.75 833.16 504.82 C 826.87 504.84 820.58 504.83 814.29 504.83 C 814.28 498.62 814.32 492.41 814.27 486.20 C 804.59 488.10 797.81 496.25 793.52 504.61 C 791.69 508.52 789.42 512.52 789.48 516.97 C 789.51 525.78 789.48 534.59 789.51 543.40 C 796.11 543.42 802.72 543.39 809.33 543.42 C 809.33 550.11 809.34 556.80 809.33 563.49 C 788.27 563.51 767.22 563.50 746.17 563.50 C 746.17 556.80 746.16 550.10 746.18 543.40 C 750.58 543.41 754.98 543.41 759.39 543.39 C 759.42 523.17 759.41 502.94 759.40 482.71 C 754.98 482.70 750.58 482.70 746.17 482.71 C 746.17 476.03 746.16 469.35 746.17 462.67 C 758.23 462.66 770.29 462.66 782.36 462.67 C 784.19 470.16 785.97 477.66 787.82 485.15 C 791.69 476.10 797.54 467.16 806.73 462.85 Z" />
<path fill="#1a354a" opacity="1.00" d=" M 154.63 462.68 C 163.78 462.65 172.92 462.66 182.07 462.67 C 184.26 489.88 186.44 517.08 188.56 544.29 C 192.23 521.35 195.61 498.37 199.17 475.41 C 207.59 475.40 216.02 475.40 224.45 475.41 C 227.60 498.30 230.68 521.21 233.86 544.09 C 236.20 516.96 238.35 489.81 240.57 462.67 C 249.42 462.67 258.26 462.65 267.11 462.67 C 262.34 496.28 257.56 529.88 252.81 563.49 C 241.75 563.50 230.69 563.50 219.64 563.49 C 216.78 541.04 213.93 518.60 211.06 496.15 C 208.01 518.59 205.12 541.05 202.07 563.49 C 191.22 563.51 180.37 563.49 169.52 563.50 C 164.53 529.90 159.57 496.29 154.63 462.68 Z" />
</g>
</svg>
